<?xml version="1.0" encoding="utf-8"?>
<!-- Generator: Adobe Illustrator 25.1.0, SVG Export Plug-In . SVG Version: 6.00 Build 0)  -->
<svg version="1.1" id="Layer_1" xmlns="http://www.w3.org/2000/svg" xmlns:xlink="http://www.w3.org/1999/xlink" x="0px" y="0px"
	 viewBox="0 0 498.32 79.53" style="enable-background:new 0 0 498.32 79.53;" xml:space="preserve">
<g>
	<g>
		<path d="M22.3,1.39c15.42,0,22.56,6.45,22.56,15.94c0,7.14-3.57,11.76-10.8,14.46v0.17c8.45,1.83,12.28,6.45,12.28,14.46
			c0,10.37-8.19,16.99-22.12,16.99H0V1.39H22.3z M12.8,26.92h9.06c7.49,0,10.71-2.35,10.71-7.67c0-5.14-3.05-7.4-10.1-7.4H12.8
			V26.92z M12.8,52.88h9.49c7.93,0,11.06-2.53,11.06-7.75c0-5.58-3.22-8.1-11.41-8.1H12.8V52.88z"/>
		<path d="M91.72,35.28v16.03c0,5.58,0.44,9.15,1.22,12.11H81.96c-0.44-1.83-0.61-3.75-0.61-5.92h-0.17
			c-3.31,4.7-8.27,6.97-14.37,6.97c-9.41,0-15.07-5.75-15.07-13.42c0-7.23,4.35-12.11,17.16-14.11c3.31-0.52,8.27-1.04,11.06-1.22
			v-1.57c0-5.58-2.96-7.84-7.23-7.84c-4.53,0-7.14,2.53-7.32,6.71H53.57C54,24.57,60.1,17.77,72.73,17.77
			C85.27,17.77,91.72,23.69,91.72,35.28z M79.96,43.12c-2.61,0.17-6.27,0.52-8.88,0.96c-5.05,0.87-7.14,2.53-7.14,6.1
			c0,3.31,2.26,5.58,6.53,5.58c2.53,0,5.23-0.78,6.97-2.53c2.09-2.09,2.53-4.44,2.53-8.45V43.12z"/>
		<path d="M125.17,53.84v9.32c-1.65,0.52-4.35,0.87-6.44,0.87c-10.19,0-14.63-4.09-14.63-14.37V28.22h-7.14v-9.06h7.14V7.67h12.19
			v11.5h8.45v9.06h-8.45v19.25c0,4.88,1.57,6.79,5.75,6.79C123.16,54.27,124.38,54.1,125.17,53.84z"/>
		<path d="M172.38,35.63h-12.72c-0.44-5.23-3.57-8.45-8.27-8.45c-5.92,0-9.49,5.4-9.49,14.11c0,8.71,3.57,14.11,9.49,14.11
			c4.7,0,7.84-3.57,8.19-9.32h12.8c-0.96,11.24-8.97,18.73-20.9,18.73c-13.5,0-22.3-9.23-22.3-23.52c0-14.29,8.8-23.52,22.3-23.52
			C163.4,17.77,171.42,25.26,172.38,35.63z"/>
		<path d="M193.37,24.04c3.14-4.01,7.49-5.92,12.19-5.92c9.93,0,16.29,6.1,16.29,18.12v27.18h-12.19V37.46
			c0-6.71-2.96-9.76-7.75-9.76c-5.05,0-8.71,3.92-8.71,12.02v23.69H181V1.39h12.19v22.65H193.37z"/>
		<path d="M297.11,20.38h-12.98c0-6.45-3.75-10.19-10.8-10.19c-5.66,0-9.49,2.79-9.49,6.79c0,4.79,3.75,6.36,13.5,8.8
			c11.67,2.88,21.77,5.92,21.77,19.43c0,11.76-9.75,19.6-24.21,19.6c-15.42,0-25.08-7.67-25.08-21.78h13.24
			c0,7.49,4.09,11.41,12.02,11.41c6.53,0,10.71-3.05,10.71-7.93c0-5.49-4.01-6.53-12.8-8.8c-11.67-2.96-22.3-5.75-22.3-19.34
			C250.69,7.49,260,0,273.59,0C289.1,0,297.11,7.06,297.11,20.38z"/>
		<path d="M351.29,41.29c0,14.11-7.14,23.26-18.2,23.26c-5.05,0-9.84-2.27-12.54-6.45h-0.17v21.43h-12.19V19.17h11.84V25h0.17
			c2.7-4.53,7.58-6.97,12.72-6.97C344.06,18.03,351.29,27.18,351.29,41.29z M319.76,41.29c0,8.8,3.75,13.94,9.23,13.94
			c5.83,0,9.58-5.49,9.58-13.94c0-8.45-3.75-13.94-9.58-13.94C323.5,27.35,319.76,32.49,319.76,41.29z"/>
		<path d="M396.58,35.28v16.03c0,5.58,0.44,9.15,1.22,12.11h-10.97c-0.44-1.83-0.61-3.75-0.61-5.92h-0.17
			c-3.31,4.7-8.27,6.97-14.37,6.97c-9.41,0-15.07-5.75-15.07-13.42c0-7.23,4.35-12.11,17.16-14.11c3.31-0.52,8.27-1.04,11.06-1.22
			v-1.57c0-5.58-2.96-7.84-7.23-7.84c-4.53,0-7.14,2.53-7.32,6.71h-11.84c0.44-8.45,6.53-15.24,19.16-15.24
			C390.14,17.77,396.58,23.69,396.58,35.28z M384.82,43.12c-2.61,0.17-6.27,0.52-8.88,0.96c-5.05,0.87-7.14,2.53-7.14,6.1
			c0,3.31,2.26,5.58,6.53,5.58c2.53,0,5.23-0.78,6.97-2.53c2.09-2.09,2.53-4.44,2.53-8.45V43.12z"/>
		<path d="M448.23,35.63h-12.72c-0.44-5.23-3.57-8.45-8.27-8.45c-5.92,0-9.49,5.4-9.49,14.11c0,8.71,3.57,14.11,9.49,14.11
			c4.7,0,7.84-3.57,8.19-9.32h12.8c-0.96,11.24-8.97,18.73-20.9,18.73c-13.5,0-22.3-9.23-22.3-23.52c0-14.29,8.8-23.52,22.3-23.52
			C439.26,17.77,447.27,25.26,448.23,35.63z"/>
		<path d="M485.25,50h12.46c-1.74,8.1-9.41,14.81-21.17,14.81c-13.94,0-22.04-9.76-22.04-23.87c0-13.07,8.1-23.17,21.95-23.17
			c10.19,0,17.68,5.75,20.47,14.72c0.96,3.05,1.39,6.45,1.39,11.32h-31.79c0.35,9.15,4.79,12.37,10.02,12.37
			C481.42,56.19,484.64,53.57,485.25,50z M466.79,36.15h19.34c-0.78-6.71-4.79-9.76-9.67-9.76
			C471.49,26.4,467.74,29.44,466.79,36.15z"/>
	</g>
	<g>
		<circle cx="238.45" cy="56.81" r="6.61"/>
	</g>
</g>
</svg>
