<?xml version="1.0" encoding="utf-8"?>
<!-- Generator: Adobe Illustrator 25.2.0, SVG Export Plug-In . SVG Version: 6.00 Build 0)  -->
<svg version="1.1" id="Layer_1" xmlns="http://www.w3.org/2000/svg" xmlns:xlink="http://www.w3.org/1999/xlink" x="0px" y="0px"
	 viewBox="0 0 43.42 43.42" style="enable-background:new 0 0 43.42 43.42;" xml:space="preserve">
<style type="text/css">
	.st0{fill:#FFFFFF;}
</style>
<g id="Group_10696" transform="translate(-1040.383 -716.589)">
	<path d="M1067.74,737.79c0.29-0.1,0.57-0.19,0.86-0.31c2.99-1.27,5.53-3.36,7.34-6.05c1.87-2.77,2.86-6,2.85-9.34l0-1h-33.4l0,1
		c0,2.25,0.44,4.44,1.31,6.5c1.27,2.99,3.36,5.53,6.05,7.35c1.15,0.78,2.38,1.39,3.65,1.85h-11.01l0,1c0,2.25,0.44,4.44,1.31,6.5
		c1.27,2.99,3.36,5.53,6.05,7.35c2.81,1.9,6.05,2.87,9.33,2.87c2.2,0,4.41-0.44,6.51-1.33c2.99-1.27,5.53-3.36,7.34-6.05
		c1.87-2.77,2.86-6,2.85-9.34l0-1H1067.74z"/>
	<path class="st0" d="M1063.67,737.17c-0.4-0.4-0.92-0.61-1.48-0.61h0c-0.56,0-1.08,0.22-1.48,0.61c-0.82,0.82-0.82,2.15,0,2.96
		c0.39,0.4,0.92,0.61,1.48,0.61s1.08-0.22,1.48-0.61C1064.48,739.32,1064.48,737.99,1063.67,737.17z"/>
</g>
<g>
</g>
<g>
</g>
<g>
</g>
<g>
</g>
<g>
</g>
<g>
</g>
<g>
</g>
<g>
</g>
<g>
</g>
<g>
</g>
<g>
</g>
<g>
</g>
<g>
</g>
<g>
</g>
<g>
</g>
</svg>
