<?xml version="1.0" encoding="utf-8"?>
<!-- Generator: Adobe Illustrator 25.2.0, SVG Export Plug-In . SVG Version: 6.00 Build 0)  -->
<svg version="1.1" id="Layer_1" xmlns="http://www.w3.org/2000/svg" xmlns:xlink="http://www.w3.org/1999/xlink" x="0px" y="0px"
	 viewBox="0 0 43.42 43.42" style="enable-background:new 0 0 43.42 43.42;" xml:space="preserve">
<style type="text/css">
	.st0{fill:#2A13AD;}
	.st1{fill:#FFFFFF;}
</style>
<g id="Group_10698_1_" transform="translate(-394.542 -702.043)">
	<path d="M437.97,722.75h-7.11c-0.64-7.02-6.39-12.57-13.5-12.92v-7.79h-2v7.82c-6.83,0.62-12.28,6.07-12.9,12.89h-7.91v2h7.88
		c0.34,7.11,5.9,12.87,12.93,13.51v7.2h2v-7.17c7.31-0.36,13.17-6.23,13.53-13.54h7.08V722.75z"/>
	<g>
		<path class="st0" d="M396.49,740.8c-0.36,0.36-0.56,0.85-0.56,1.36c0,0.51,0.2,1,0.56,1.36c0.38,0.38,0.87,0.56,1.36,0.56
			c0.49,0,0.99-0.19,1.36-0.56c0.36-0.36,0.56-0.85,0.57-1.36c0-0.51-0.2-1-0.56-1.36C398.46,740.05,397.24,740.05,396.49,740.8z"/>
		<path class="st0" d="M434.75,707.49c0.49,0,0.99-0.19,1.36-0.56c0.36-0.36,0.56-0.85,0.56-1.36c0-0.51-0.2-1-0.56-1.36
			c-0.75-0.75-1.97-0.75-2.72,0l0,0c-0.75,0.75-0.75,1.97,0,2.72C433.77,707.3,434.26,707.49,434.75,707.49z"/>
		<path class="st0" d="M396.6,704.13c-0.75,0.75-0.75,1.97,0,2.72c0.38,0.38,0.87,0.56,1.36,0.56s0.99-0.19,1.36-0.56
			c0.75-0.75,0.75-1.97,0-2.72C398.57,703.38,397.35,703.38,396.6,704.13z"/>
		<path class="st0" d="M436.28,740.47c-0.75-0.75-1.97-0.75-2.72,0c-0.75,0.75-0.75,1.97,0,2.72c0.38,0.38,0.87,0.56,1.36,0.56
			s0.99-0.19,1.36-0.56C437.03,742.45,437.03,741.22,436.28,740.47z"/>
	</g>
</g>
<path class="st1" d="M23.06,20.35c-0.72-0.72-1.98-0.72-2.71,0c-0.74,0.75-0.74,1.96,0,2.7l0,0c0.37,0.37,0.86,0.56,1.35,0.56
	c0.49,0,0.98-0.19,1.35-0.56c0.36-0.36,0.56-0.84,0.56-1.35C23.62,21.19,23.42,20.71,23.06,20.35z"/>
<g>
</g>
<g>
</g>
<g>
</g>
<g>
</g>
<g>
</g>
<g>
</g>
<g>
</g>
<g>
</g>
<g>
</g>
<g>
</g>
<g>
</g>
<g>
</g>
<g>
</g>
<g>
</g>
<g>
</g>
</svg>
