<?xml version="1.0" encoding="utf-8"?>
<!-- Generator: Adobe Illustrator 25.2.0, SVG Export Plug-In . SVG Version: 6.00 Build 0)  -->
<svg version="1.1" id="Layer_1" xmlns="http://www.w3.org/2000/svg" xmlns:xlink="http://www.w3.org/1999/xlink" x="0px" y="0px"
	 viewBox="0 0 43.42 43.42" style="enable-background:new 0 0 43.42 43.42;" xml:space="preserve">
<style type="text/css">
	.st0{fill:#FFFFFF;}
	.st1{fill:#2A13AD;}
</style>
<g id="Group_10697" transform="translate(-653.743 -704.664)">
	<path d="M694.16,709.08l-1.41-1.41l-8.12,8.12c-5.52-4.75-13.88-4.52-19.12,0.71c-2.66,2.66-4.12,6.19-4.12,9.95
		c0,3.4,1.21,6.62,3.41,9.17l-8.04,8.04l1.41,1.41l8.04-8.04c2.64,2.32,5.95,3.49,9.26,3.49c3.6,0,7.21-1.37,9.95-4.12
		c2.66-2.66,4.12-6.19,4.12-9.95c0-3.45-1.24-6.69-3.49-9.26L694.16,709.08z"/>
	<path class="st0" d="M676.41,724.81c-0.75-0.74-1.96-0.74-2.7,0c-0.36,0.36-0.56,0.84-0.56,1.35c0,0.51,0.2,0.99,0.56,1.35
		c0,0,0,0,0,0c0.36,0.36,0.84,0.56,1.35,0.56c0.51,0,0.99-0.2,1.35-0.56s0.56-0.84,0.56-1.35
		C676.97,725.65,676.77,725.17,676.41,724.81z"/>
	<g>
		<path class="st1" d="M691.41,739.81c-0.74-0.74-1.96-0.74-2.7,0c-0.36,0.36-0.56,0.84-0.56,1.35c0,0.51,0.2,0.99,0.56,1.35
			s0.84,0.56,1.35,0.56c0.51,0,0.99-0.2,1.35-0.56s0.56-0.84,0.56-1.35C691.97,740.65,691.77,740.17,691.41,739.81z"/>
		<path class="st1" d="M659.14,710.25c-0.36,0.36-0.56,0.84-0.56,1.35c0,0.51,0.2,0.99,0.56,1.35c0.36,0.36,0.84,0.56,1.35,0.56
			s0.99-0.2,1.35-0.56c0.36-0.36,0.56-0.84,0.56-1.35c0-0.51-0.2-0.99-0.56-1.35C661.12,709.53,659.86,709.53,659.14,710.25z"/>
	</g>
</g>
<g>
</g>
<g>
</g>
<g>
</g>
<g>
</g>
<g>
</g>
<g>
</g>
<g>
</g>
<g>
</g>
<g>
</g>
<g>
</g>
<g>
</g>
<g>
</g>
<g>
</g>
<g>
</g>
<g>
</g>
</svg>
