<?xml version="1.0" encoding="utf-8"?>
<!-- Generator: Adobe Illustrator 25.2.0, SVG Export Plug-In . SVG Version: 6.00 Build 0)  -->
<svg version="1.1" id="Layer_1" xmlns="http://www.w3.org/2000/svg" xmlns:xlink="http://www.w3.org/1999/xlink" x="0px" y="0px"
	 viewBox="0 0 321.73 496.38" style="enable-background:new 0 0 321.73 496.38;" xml:space="preserve">
<style type="text/css">
	.st0{fill:#FFFFFF;}
</style>
<g id="Path_103">
	<path class="st0" d="M186.1,496.38c-3.29,0-6.52-1.62-8.43-4.6c-2.98-4.65-1.63-10.83,3.02-13.82
		c32.52-20.87,66.15-42.45,89.44-73.27c32.28-42.72,40.7-102.19,21.43-151.52c-9.51-24.34-25.76-46.21-47.01-63.26
		c-18.69-14.99-40.09-25.31-62.39-30.15c1.06,17.97-1.12,35.04-6.52,50.95c-8.52,25.12-26.23,47.44-49.87,62.84
		c-23.63,15.4-51.2,22.59-77.62,20.24c-16.39-1.45-28.83-6.65-36.98-15.44c-9.15-9.86-13.01-24.72-10.33-39.74
		c1.96-10.97,7.01-21.77,15.89-34c31.9-43.87,87.28-69.88,141.86-67.9c-4.17-18.44-11.83-37.43-22.81-56.02
		c-17.93-30.37-38.81-50.25-62.1-59.17c-3.54,1.71-7.84,1.39-10.99-0.36c-4.87-2.71-6.87-8.43-4.77-13.58
		c2.6-6.36,9.71-9.12,17.29-6.71c29.95,9.52,56.13,32.96,77.8,69.65c12.96,21.94,22.09,45.33,26.41,67.65
		c0.05,0.24,0.09,0.47,0.14,0.71c27.8,4.78,54.52,16.99,77.52,35.43c23.98,19.23,42.35,43.99,53.13,71.58
		c21.74,55.66,12.27,122.72-24.11,170.86c-25.44,33.66-62.18,57.24-94.59,78.04C189.82,495.86,187.95,496.38,186.1,496.38z
		 M152.57,156.59c-46.35,0-92.62,22.59-119.67,59.78c-7.04,9.68-10.97,17.86-12.38,25.74c-1.56,8.75,0.47,17.42,5.31,22.63
		c4.68,5.05,12.78,8.11,24.08,9.12c45.28,4.03,92.18-26.55,106.78-69.58c4.92-14.49,6.57-30.54,5.08-47.39
		C158.72,156.69,155.64,156.59,152.57,156.59z"/>
</g>
<g>
</g>
<g>
</g>
<g>
</g>
<g>
</g>
<g>
</g>
<g>
</g>
<g>
</g>
<g>
</g>
<g>
</g>
<g>
</g>
<g>
</g>
<g>
</g>
<g>
</g>
<g>
</g>
<g>
</g>
</svg>
