<?xml version="1.0" encoding="utf-8"?>
<!-- Generator: Adobe Illustrator 25.2.0, SVG Export Plug-In . SVG Version: 6.00 Build 0)  -->
<svg version="1.1" id="Layer_1" xmlns="http://www.w3.org/2000/svg" xmlns:xlink="http://www.w3.org/1999/xlink" x="0px" y="0px"
	 viewBox="0 0 329.49 256.55" style="enable-background:new 0 0 329.49 256.55;" xml:space="preserve">
<style type="text/css">
	.st0{fill:#FFFFFF;}
</style>
<g>
	<path class="st0" d="M15.35,254.01c19.55-16.45,39.25-32.73,59.09-48.83c19.76-16.04,39.67-31.9,59.72-47.58
		c5.01-3.92,10.03-7.83,15.06-11.73c1.18-0.91,2.36-1.83,3.54-2.74c0.31-0.24,0.63-0.49,0.94-0.73c-1.75,1.34-0.79,0.61-0.41,0.31
		c0.71-0.55,1.42-1.09,2.13-1.64c2.52-1.94,5.04-3.88,7.57-5.82c10.17-7.81,20.38-15.57,30.63-23.29
		c20.33-15.31,40.8-30.44,61.4-45.39s41.34-29.71,62.2-44.28c2.61-1.82,5.22-3.64,7.83-5.46c1.95-1.36,3.49-3.02,4.14-5.38
		c0.59-2.15,0.33-5.02-0.91-6.94c-2.47-3.83-8.18-6.1-12.31-3.23c-21.06,14.64-41.99,29.47-62.79,44.49
		c-20.63,14.9-41.13,29.99-61.5,45.26c-20.98,15.73-41.8,31.66-62.5,47.76c-20.16,15.69-40.19,31.57-60.06,47.63
		s-39.61,32.29-59.2,48.7c-2.44,2.04-4.87,4.09-7.31,6.14c-3.62,3.04-3.37,9.63,0,12.73C6.47,257.54,11.49,257.25,15.35,254.01
		L15.35,254.01z"/>
</g>
<g>
	<path class="st0" d="M78.29,40.88c16.04,19.72,31.89,39.59,47.54,59.62c4.39,5.61,8.76,11.24,13.11,16.88
		c-0.47-0.61-0.94-1.21-1.41-1.82c10.49,13.58,20.89,27.23,31.2,40.95c10.31,13.72,20.53,27.51,30.66,41.37
		c5.73,7.84,11.43,15.71,17.11,23.6c1.4,1.95,2.98,3.48,5.38,4.14c2.15,0.59,5.02,0.33,6.94-0.91c1.92-1.24,3.61-3.08,4.14-5.38
		c0.51-2.23,0.49-5-0.91-6.94c-17.49-24.32-35.26-48.43-53.32-72.33c-18.42-24.39-37.11-48.56-56.09-72.51
		c-10.46-13.2-21-26.33-31.63-39.39c-1.37-1.68-4.29-2.64-6.36-2.64c-2.21,0-4.84,0.98-6.36,2.64c-1.57,1.72-2.74,3.97-2.64,6.36
		C75.76,37.04,76.7,38.93,78.29,40.88L78.29,40.88z"/>
</g>
<g>
</g>
<g>
</g>
<g>
</g>
<g>
</g>
<g>
</g>
<g>
</g>
<g>
</g>
<g>
</g>
<g>
</g>
<g>
</g>
<g>
</g>
<g>
</g>
<g>
</g>
<g>
</g>
<g>
</g>
</svg>
