<?xml version="1.0" encoding="utf-8"?>
<!-- Generator: Adobe Illustrator 25.2.0, SVG Export Plug-In . SVG Version: 6.00 Build 0)  -->
<svg version="1.1" id="Layer_1" xmlns="http://www.w3.org/2000/svg" xmlns:xlink="http://www.w3.org/1999/xlink" x="0px" y="0px"
	 viewBox="0 0 449.86 252.01" style="enable-background:new 0 0 449.86 252.01;" xml:space="preserve">
<style type="text/css">
	.st0{fill:#FFFFFF;}
</style>
<g id="Path_102">
	<path class="st0" d="M276.39,252.01c-12.07,0-23.5-1.53-34.2-4.59c-25.65-7.34-33.51-21.81-35.92-29.78c-0.95-3.15-1.4-6.3-1.5-9.4
		c-42.31,13.03-81.49,15.17-117.03,6.31c-20.87-5.2-35-14.4-42-27.35c-1.9-3.51-3.28-7.26-4.15-11.27
		c-10.46,4.09-21.09,7.79-31.9,11.1c-3.96,1.21-8.15-1.01-9.37-4.97s1.01-8.15,4.97-9.37c12.03-3.69,23.84-7.88,35.42-12.55
		c0.66-7.86,2.78-16.5,6.38-26.02c16.94-44.79,50.07-85.98,95.81-119.14c7.21-5.22,15.74-11.02,25.85-13.63
		c11.99-3.1,23.93-0.76,31.94,6.25c7.79,6.81,11.69,17.85,10.42,29.53c-0.91,8.38-4.24,16.82-10.48,26.56
		c-12.71,19.83-30.38,35.13-44.36,46.24c-30.91,24.54-64.56,44.68-100.49,60.17c0.48,3.69,1.52,7.01,3.13,9.98
		c4.91,9.09,15.82,15.79,32.43,19.93c34.73,8.65,73.52,5.86,115.82-8.28c0.69-2.35,1.46-4.59,2.24-6.67
		c13.16-35.5,39.88-68.33,81.67-100.38c12.48-9.58,26.24-19.05,42.24-23.5c11.24-3.13,17.6,0.07,20.96,3.3
		c5.24,5.04,5.45,12.43,5.52,14.86c0.81,27.57-17.83,50.12-33.61,64.18c-14.53,12.95-31.67,24.35-55.56,36.96
		c-17.3,9.13-34.19,16.69-50.63,22.65c-0.44,3.46-0.38,6.94,0.6,10.19c3.68,12.19,19.19,17.83,25.68,19.69
		c17.89,5.12,38.36,5.34,60.82,0.66c10.12-2.11,19.87-5.13,29.11-8.95c-0.87-1.21-1.65-2.49-2.34-3.83
		c-6.33-12.26-4.26-27.79,5.99-44.91c13.66-22.72,33.42-40.94,57.15-52.73c12.45-6.14,23.63-5.42,29.93,1.94
		c7.08,8.27,3.58,19.65,2.43,23.39c-9.55,31-32.02,58.15-61.92,76.86c4.47,0.64,8.45,0.63,10.57,0.55
		c21.68-0.82,42.38-8.08,59.83-21c3.33-2.46,8.02-1.77,10.49,1.57c2.46,3.33,1.76,8.03-1.57,10.49
		c-19.89,14.73-43.48,23-68.21,23.94c-11.56,0.4-21.63-1.53-29.54-5.54c-12.17,5.68-25.21,10.06-38.87,12.91
		C298.47,250.79,287.17,252.01,276.39,252.01z M412.82,134.07c-2.32,0-5.66,0.92-9.11,2.62c-21.14,10.5-38.77,26.75-50.94,47
		c-4.24,7.08-10.61,20.46-5.53,30.31c0.8,1.56,1.83,2.92,3.02,4.11c31.52-16.78,55.36-43.29,64.81-73.96
		c2.01-6.51,1.03-8.61,0.51-9.21C415.09,134.35,414.11,134.07,412.82,134.07z M341.91,74.87c-1.04,0-2.53,0.18-4.55,0.74
		c-13.54,3.76-25.85,12.29-37.13,20.95c-37.34,28.64-61.82,57.61-74.64,88.38c12.41-4.98,25.11-10.9,38.07-17.74
		c22.77-12.02,38.99-22.78,52.58-34.89c24.27-21.63,28.95-40.52,28.59-52.55c-0.1-3.59-0.84-4.4-0.92-4.48
		C343.74,75.12,343.12,74.87,341.91,74.87z M179.13,15.03c-2.33,0-4.61,0.33-6.6,0.84c-7.57,1.96-14.71,6.83-20.8,11.25
		c-43.36,31.43-74.69,70.27-90.59,112.3c-1.86,4.93-3.26,9.51-4.2,13.77c32.06-14.52,62.2-32.92,90.03-55.02
		c13.07-10.39,29.54-24.61,41.06-42.58c4.94-7.71,7.55-14.1,8.2-20.09c0.73-6.71-1.33-13.08-5.38-16.61
		C187.61,16.06,183.28,15.03,179.13,15.03z"/>
</g>
<g>
</g>
<g>
</g>
<g>
</g>
<g>
</g>
<g>
</g>
<g>
</g>
<g>
</g>
<g>
</g>
<g>
</g>
<g>
</g>
<g>
</g>
<g>
</g>
<g>
</g>
<g>
</g>
<g>
</g>
</svg>
