<?xml version="1.0" encoding="utf-8"?>
<!-- Generator: Adobe Illustrator 25.2.0, SVG Export Plug-In . SVG Version: 6.00 Build 0)  -->
<svg version="1.1" id="Layer_1" xmlns="http://www.w3.org/2000/svg" xmlns:xlink="http://www.w3.org/1999/xlink" x="0px" y="0px"
	 viewBox="0 0 449.55 179.58" style="enable-background:new 0 0 449.55 179.58;" xml:space="preserve">
<style type="text/css">
	.st0{fill:#FFFFFF;}
</style>
<g id="Path_99_1_">
	<path class="st0" d="M305.54,179.58c-2.87,0-5.66-0.58-8.35-1.75c-9.3-4.03-14.16-13.49-14.44-28.11
		c-0.19-10.33,0.2-20.81,0.59-30.94c1.02-26.98,1.99-52.47-7.33-75.42c-7.76-19.11-18.84-21.82-22.05-22.2
		c-7.42-0.87-16.19,3.42-26.8,13.1c-14.67,13.38-27.7,29.6-40.3,45.28c-19.2,23.89-39.04,48.59-66.02,65.56
		c-13.97,8.79-26.02,11.26-36.84,7.54c-7.52-2.58-12.73-7.66-17.32-12.14c-2.9-2.83-5.63-5.5-8.36-6.89
		c-6.11-3.12-14.51-0.7-20.13,3.09c-7.53,5.08-13.44,13.32-19.16,21.29c-3.38,4.71-9.94,5.79-14.65,2.41
		c-4.71-3.38-5.79-9.94-2.41-14.65c6.48-9.04,13.83-19.28,24.49-26.47c13.3-8.97,29.17-10.64,41.43-4.37
		c5.56,2.84,9.76,6.94,13.46,10.56c3.44,3.36,6.41,6.26,9.47,7.31c4.36,1.5,10.7-0.34,18.84-5.46
		c23.99-15.1,41.89-37.37,60.83-60.94c13.1-16.3,26.65-33.17,42.52-47.64c22.84-20.84,38.3-19.03,43.38-18.44
		c16.54,1.93,30.79,14.74,39.07,35.15c11.02,27.13,9.92,56.1,8.86,84.11c-0.37,9.84-0.76,20.01-0.58,29.75
		c0.13,6.83,1.52,8.87,1.8,9.22c0.42-0.01,2.71-0.3,7.5-4.29c14.5-12.08,26.52-26.6,39.26-41.97c11.4-13.77,23.2-28,36.97-40.37
		c6.18-5.55,13.82-11.29,23.68-11.82c10.97-0.61,21.8,5.74,28.29,16.52c5,8.32,6.67,17.41,8.14,25.42
		c1.04,5.7-2.73,11.17-8.44,12.22c-5.7,1.05-11.17-2.73-12.22-8.44c-1.2-6.56-2.44-13.34-5.47-18.38c-2.36-3.92-6.15-6.53-9.16-6.38
		c-3.34,0.18-7.33,3.38-10.78,6.48c-12.62,11.34-23.41,24.36-34.83,38.15c-12.78,15.43-26,31.38-41.98,44.7
		C319.14,176.51,312.13,179.58,305.54,179.58z"/>
</g>
<g>
</g>
<g>
</g>
<g>
</g>
<g>
</g>
<g>
</g>
<g>
</g>
<g>
</g>
<g>
</g>
<g>
</g>
<g>
</g>
<g>
</g>
<g>
</g>
<g>
</g>
<g>
</g>
<g>
</g>
</svg>
