<?xml version="1.0" encoding="utf-8"?>
<!-- Generator: Adobe Illustrator 24.1.2, SVG Export Plug-In . SVG Version: 6.00 Build 0)  -->
<svg version="1.1" xmlns="http://www.w3.org/2000/svg" xmlns:xlink="http://www.w3.org/1999/xlink" x="0px" y="0px"
	 viewBox="0 0 1375.64 422.47" style="enable-background:new 0 0 1375.64 422.47;" xml:space="preserve">
<style type="text/css">
	.st0{fill:#010202;}
	.st1{fill:none;stroke:#000000;stroke-miterlimit:10;}
</style>
<g id="Layer_1">
	<g>
		<path class="st0" d="M185.21,422.47c-0.09,0-0.17,0-0.26,0c-1.82,0-3.65-0.46-5.29-1.38c-0.63-0.35-1.21-0.76-1.75-1.22L5.17,314
			C1.96,312.03,0,308.53,0,304.77v-174.4c0-3.57,1.76-6.91,4.71-8.93L177.45,3.02c0.72-0.69,1.54-1.29,2.45-1.77
			c1.63-0.86,3.42-1.28,5.18-1.25c1.8-0.01,3.56,0.39,5.19,1.25c0.91,0.48,1.72,1.07,2.44,1.76l172.74,118.41
			c2.95,2.02,4.71,5.36,4.71,8.93v174.4c0,3.77-1.96,7.26-5.17,9.23L192.25,419.87c-0.53,0.46-1.11,0.86-1.74,1.21
			C188.86,422.01,187.03,422.47,185.21,422.47z M21.66,298.7l163.42,100.16L348.5,298.7V136.07L185.08,24.05L21.66,136.07V298.7z"/>
		<path class="st0" d="M150.52,160.12c-2.67-1.98-6.33-2.91-10.37-2.72c2.6-3.4,5.05-7.21,7.05-10.98c2.6-4.9,5.69-12.16,5.69-18.96
			c0-8.68-3.88-12.66-7.13-14.47c-6.43-3.58-16.23-1.83-26.87,4.78l-38.27,26.38c-2.16,1.34-3.79,4.06-3.79,6.32v96.32
			c0,1.45,0.65,2.65,1.78,3.28c0.51,0.29,1.09,0.43,1.69,0.43c0.84,0,1.73-0.27,2.61-0.82l40.16-27.56
			c18.67-11.6,32.74-32.93,32.74-49.62C155.8,166.89,154.02,162.72,150.52,160.12z M126.91,138.03c1.49,0.83,1.72,3.22,1.72,4.57
			c0,6.78-4.94,14.96-11.49,19.03l-17.21,13.3v-20.36l19.5-14.72C122.6,137.87,125.4,137.19,126.91,138.03z M129.58,179.05
			c1.1,0.61,1.66,1.85,1.66,3.67c0,6.75-5.3,15.33-12.07,19.54l-19.25,14.57v-20.8l19.79-14.9
			C123.61,178.71,127.49,177.89,129.58,179.05z"/>
		<path class="st0" d="M128.62,142.6c0,0,0-7.43-8.02-1.96c-7.46,5.1-25.5,19.16-25.5,19.16l-0.6-5.15l36.74-30.05l9.6,11.38
			L128.62,142.6z"/>
		<path class="st0" d="M128.62,142.6c0,0-0.32,9.32-7.95,15.25c-7.06,5.49-23.61,18.3-23.61,18.3l2.86,4.68l30.28-18.43l4.44-16.57
			L128.62,142.6z"/>
	</g>
	<g>
		<path d="M468.14,142.57c0-2.04,1.58-3.88,3.75-3.88h45.14c23.46,0,41.59,16.34,41.59,37.79c0,15.73-12.42,27.98-21.68,32.48
			c10.45,3.47,25.63,14.5,25.63,33.29c0,22.88-18.92,39.42-42.97,39.42h-47.7c-2.17,0-3.75-1.84-3.75-3.88V142.57z M514.66,198.74
			c10.05,0,16.95-8.17,16.95-18.38c0-10.21-6.9-17.36-16.95-17.36h-21.09v35.74H514.66z M517.42,257.56
			c9.86,0,17.74-7.97,17.74-18.59c0-10.21-9.86-17.77-20.11-17.77h-21.49v36.36H517.42z"/>
		<path d="M606.91,229.99c7.88,0,14.39,2.25,14.39,2.25c0.2-10.42-2.96-14.09-10.25-14.09c-7.29,0-17.54,1.63-22.08,3.06
			c-2.76,0.82-4.14-1.02-4.53-3.68l-1.77-10.62c-0.59-3.06,0.99-4.49,2.76-5.11c1.58-0.61,14.19-3.88,26.81-3.88
			c24.64,0,30.36,13.28,30.36,35.54v44.32c0,2.04-1.77,3.88-3.75,3.88h-7.1c-1.38,0-2.37-0.61-3.35-2.86l-2.37-5.51
			c-4.53,4.29-11.83,10.42-24.05,10.42c-15.77,0-26.61-10.62-26.61-27.98C575.37,241.22,586.8,229.99,606.91,229.99z M607.3,266.35
			c6.31,0,12.42-5.52,13.6-7.97v-11.23c0,0-5.32-2.45-11.04-2.45c-7.69,0-12.81,4.49-12.81,11.03
			C597.05,261.85,601.19,266.35,607.3,266.35z"/>
		<path d="M669.39,221.41h-6.7c-1.97,0-3.55-1.84-3.55-3.88v-13.69c0-2.25,1.58-3.88,3.55-3.88h6.7v-22.67
			c0-2.04,1.77-3.88,3.75-3.88l16.16-0.2c1.97,0,3.55,1.84,3.55,3.88v22.88h17.35c2.17,0,3.75,1.63,3.75,3.88v13.69
			c0,2.04-1.58,3.88-3.75,3.88h-17.35v32.68c0,5.72,2.96,6.54,6.11,6.54c3.35,0,7.49-1.43,9.66-2.25c2.17-0.82,3.75,0.2,4.34,2.25
			l3.94,12.87c0.79,2.04-0.2,4.09-2.17,4.9c-0.99,0.61-13.8,5.31-23.46,5.31c-15.18,0-21.88-9.8-21.88-26.35V221.41z"/>
		<path d="M769.13,197.92c12.22,0,21.68,5.11,29.18,14.5c1.38,1.84,0.99,4.29-0.99,5.72l-9.07,8.99c-1.77,1.63-3.55,0.61-4.93-0.61
			c-3.15-3.68-8.08-6.54-13.6-6.54c-10.64,0-19.32,9.4-19.32,20.83c0,11.64,8.48,20.83,19.12,20.83c8.48,0,12.22-4.29,15.77-7.76
			c1.38-1.43,3.35-1.84,4.93-0.61l8.48,7.56c1.97,1.63,2.76,3.68,1.38,5.72c-6.7,10.83-17.15,17.16-31.15,17.16
			c-22.28,0-41.79-18.38-41.79-42.89C727.14,216.71,747.05,197.92,769.13,197.92z"/>
		<path d="M817.22,142.57c0-2.04,1.77-3.88,3.75-3.88h16.76c1.97,0,3.75,1.84,3.75,3.88v62.09c3.94-3.06,11.63-6.74,20.89-6.74
			c25.04,0,35.29,20.02,35.29,40.65v39.22c0,2.04-1.77,3.88-3.75,3.88h-15.97c-2.17,0-3.75-1.84-3.75-3.88v-39.42
			c0-11.23-6.11-18.38-15.57-18.38c-9.07,0-15.18,6.13-17.15,14.5v43.3c0,2.25-1.18,3.88-4.14,3.88h-16.36
			c-1.97,0-3.75-1.84-3.75-3.88V142.57z"/>
		<path d="M930.95,250.01c8.87,0,16.36,7.76,16.36,16.95s-7.49,16.75-16.36,16.75s-16.17-7.56-16.17-16.75
			S922.08,250.01,930.95,250.01z"/>
		<path d="M961.7,271.86l5.32-11.03c0.79-2.04,2.76-2.45,4.53-1.43c0,0,8.87,4.9,17.94,4.9c3.94,0,6.7-1.63,6.7-5.11
			c0-3.68-2.76-5.92-13.21-10.21c-15.18-6.13-22.28-14.5-22.28-26.96c0-12.46,8.87-24.1,28.98-24.1c11.63,0,20.11,3.47,24.25,6.33
			c1.77,1.23,2.76,3.47,1.77,5.52l-4.93,10.42c-0.99,1.84-3.15,2.04-4.73,1.43c0,0-8.87-4.29-16.36-4.29c-4.73,0-6.7,2.04-6.7,4.7
			c0,3.68,3.55,4.9,10.84,7.97c15.18,6.13,26.61,12.87,26.61,28.8c0,13.48-11.43,24.92-31.34,24.92c-13.01,0-22.08-4.29-26.22-7.56
			C961.7,275.13,960.91,273.49,961.7,271.86z"/>
		<path d="M1062.03,339.06c0,2.45-1.18,3.88-4.73,3.88h-15.77c-1.97,0-3.75-1.84-3.75-3.88V203.85c0-2.25,1.77-3.88,3.75-3.88h7.69
			c1.38,0,2.76,0.82,3.35,2.45l2.56,6.74c2.96-4.09,12.62-11.23,25.43-11.23c21.68,0,38.05,19.4,38.05,42.89
			c0,24.1-17.74,42.89-39.03,42.89c-7.69,0-14.78-2.86-17.54-4.49V339.06z M1076.42,261.65c11.04,0,19.12-9.4,19.12-20.83
			c0-11.44-7.49-20.83-18.33-20.83c-10.05,0-14.98,8.17-16.17,12.46v24.51C1061.05,256.95,1066.57,261.65,1076.42,261.65z"/>
		<path d="M1162.17,229.99c7.88,0,14.39,2.25,14.39,2.25c0.2-10.42-2.96-14.09-10.25-14.09c-7.29,0-17.54,1.63-22.08,3.06
			c-2.76,0.82-4.14-1.02-4.53-3.68l-1.77-10.62c-0.59-3.06,0.99-4.49,2.76-5.11c1.58-0.61,14.19-3.88,26.81-3.88
			c24.64,0,30.36,13.28,30.36,35.54v44.32c0,2.04-1.77,3.88-3.75,3.88h-7.1c-1.38,0-2.37-0.61-3.35-2.86l-2.37-5.51
			c-4.53,4.29-11.83,10.42-24.05,10.42c-15.77,0-26.61-10.62-26.61-27.98C1130.63,241.22,1142.06,229.99,1162.17,229.99z
			 M1162.56,266.35c6.31,0,12.42-5.52,13.6-7.97v-11.23c0,0-5.32-2.45-11.04-2.45c-7.69,0-12.81,4.49-12.81,11.03
			C1152.31,261.85,1156.45,266.35,1162.56,266.35z"/>
		<path d="M1256.38,197.92c12.22,0,21.68,5.11,29.18,14.5c1.38,1.84,0.99,4.29-0.99,5.72l-9.07,8.99c-1.77,1.63-3.55,0.61-4.93-0.61
			c-3.15-3.68-8.08-6.54-13.6-6.54c-10.64,0-19.32,9.4-19.32,20.83c0,11.64,8.48,20.83,19.12,20.83c8.48,0,12.22-4.29,15.77-7.76
			c1.38-1.43,3.35-1.84,4.93-0.61l8.48,7.56c1.97,1.63,2.76,3.68,1.38,5.72c-6.7,10.83-17.15,17.16-31.15,17.16
			c-22.28,0-41.79-18.38-41.79-42.89C1214.4,216.71,1234.31,197.92,1256.38,197.92z"/>
		<path d="M1338.78,197.92c20.3,0,36.86,15.93,36.86,37.99c0,1.43-0.2,4.08-0.4,5.52c-0.2,2.04-1.97,3.47-3.75,3.47h-50.47
			c0.59,8.37,7.49,17.77,18.93,17.77c6.11,0,11.83-2.45,15.38-5.11c1.97-1.23,3.75-1.63,5.13,0l8.08,9.6
			c1.38,1.43,1.78,3.68-0.2,5.31c-6.5,6.33-16.56,11.23-29.37,11.23c-23.66,0-40.41-19.4-40.41-42.89
			C1298.56,217.73,1315.32,197.92,1338.78,197.92z M1352.58,230.6c-0.59-7.56-6.9-13.89-14.39-13.89c-7.88,0-14.39,6.13-15.38,13.89
			H1352.58z"/>
	</g>
	<path class="st1" d="M290.89,180.83"/>
	<path class="st1" d="M223.67,335.56"/>
</g>
<g id="Layer_2">
	<path d="M292.89,240.2c-6.81-4.56-16.02-4.01-19.33-3.34c-3.32,0.67-10.96,3.27-14.75-0.35c-3.79-3.62-1.9-11.51,2.29-17.37
		c2.44-3.41,4.71-5.79,6.95-7.53c3.74-2.91,8.32-4.98,12.54-6.13c4.03-1.1,7.65-2.53,13-3.92c3.3-0.86,4.09-2.98,4.38-5.67
		c0.71-6.67,3.55-11.09,0.79-13.67s-14.63-3.81-32.31,5.43s-34.66,27.93-33.96,49.72c-0.28,7.21,2.52,16.85,8.52,20.52
		c5.14,3.14,13.69,4.62,19.94,4.75s13.46-1.98,16.72,3.09c3.26,5.08-2.55,11.26-9.09,18.41c-16,15.19-24.55,12.28-29.31,14.19
		s-7.05,5.04-7.08,14.89c-0.01,4.3,0.94,6.2,2.76,7.34c1.82,1.14,10.19,0.61,18.38-1.57s17.44-8.03,26.48-15.94
		c14.2-12.45,19.21-28.3,20.03-32.17c0.82-3.87,2.22-7.33,1.82-13.73C301.26,250.75,299.7,244.76,292.89,240.2z"/>
</g>
</svg>
